:version 1.10
:name ASF
:units
  mass 1
  length 1
  angle deg
:documentation
  ASF file generated by Kaydara
:root
  axis xyz
  order  tx ty tz rx ry rz
  position 0 0 0
  orientation 0 0 0
:bonedata
  begin
    id 1
    name RightUpLegDummy
    direction -0.718183 -0.695806 0.00816078
    length 4.904
    axis 0 0 0 xyz
  end
  begin
    id 2
    name RightUpLeg
    direction 3.53373e-006 -0.995788 0.0916898
    length 17.4976
    axis -3.49089 -0.000906625 0.000286804 xyz
    dof rx ry rz
  end
  begin
    id 3
    name RightLeg
    direction 0.00371092 -0.995096 -0.0988419
    length 16.5821
    axis 3.68512 0.0193738 -0.131023 xyz
    dof rx ry rz
  end
  begin
    id 4
    name RightFoot
    direction 0.00079151 -0.46099 0.887405
    length 3.77069
    axis 4.81691e-005 -0.120479 -0.188788 xyz
    dof rx ry rz
  end
  begin
    id 5
    name RightToes
    direction 0 0 0
    length 0
    axis 0 0 0 xyz
    dof rx ry rz
  end
  begin
    id 6
    name SpineDummy
    direction 8.3039e-015 1 4.57515e-016
    length 4.6813
    axis 0 0 0 xyz
  end
  begin
    id 7
    name Spine
    direction -3.15643e-008 0.999988 0.00495137
    length 10.1015
    axis -0.001389 0.000121418 2.40972e-006 xyz
    dof rx ry rz
  end
  begin
    id 8
    name Spine1
    direction 0 0 0
    length 0
    axis -0.001389 0.000121451 1.30017e-006 xyz
    dof rx ry rz
  end
  begin
    id 9
    name HEadDummy
    direction -1.99912e-008 0.999999 0.00127422
    length 3.43865
    axis -0.001389 0.000121451 1.30017e-006 xyz
  end
  begin
    id 10
    name HEad
    direction 0 0 0
    length 0
    axis 0 0 0 xyz
    dof rx ry rz
  end
  begin
    id 11
    name LeftShoulder1Dummy
    direction 0.998891 -0.0402509 -0.0244456
    length 3.5433
    axis -0.001389 0.000121451 1.30017e-006 xyz
  end
  begin
    id 12
    name LeftShoulder1
    direction 0.99951 -0.000327763 0.0313091
    length 4.05031
    axis -0.001389 0.000121451 1.30017e-006 xyz
    dof rx ry rz
  end
  begin
    id 13
    name LeftArm
    direction 0.998561 -0.00100056 -0.0536182
    length 10.3537
    axis -23.1894 0.134784 0.967509 xyz
    dof rx ry rz
  end
  begin
    id 14
    name LeftForeArm
    direction 0.998903 0.00866432 0.046012
    length 8.70632
    axis -9.91835 -0.06569 -0.177794 xyz
    dof rx ry rz
  end
  begin
    id 15
    name LeftHand
    direction 0 0 0
    length 0
    axis 0 0 0 xyz
    dof rx ry rz
  end
  begin
    id 16
    name RightShoulderDummy
    direction -0.998891 -0.0402509 -0.0244414
    length 3.5433
    axis -0.001389 0.000121451 1.30017e-006 xyz
  end
  begin
    id 17
    name RightShoulder
    direction -0.99951 -0.000327807 0.0313133
    length 4.05031
    axis 0.215806 0.000203643 -0.0068026 xyz
    dof rx ry rz
  end
  begin
    id 18
    name RightArm
    direction -0.998573 -0.000999564 -0.053403
    length 10.3947
    axis -23.2009 -0.134239 -0.964101 xyz
    dof rx ry rz
  end
  begin
    id 19
    name RightForeArm
    direction -0.998898 0.00868028 0.0461306
    length 8.68355
    axis -9.92322 0.0658061 0.178868 xyz
    dof rx ry rz
  end
  begin
    id 20
    name RightHand
    direction 0 0 0
    length 0
    axis 0 0 0 xyz
    dof rx ry rz
  end
  begin
    id 21
    name LeftUpLegDummy
    direction 0.718183 -0.695806 0.00816078
    length 4.904
    axis 0 0 0 xyz
  end
  begin
    id 22
    name LeftUpLeg
    direction -6.81752e-006 -0.995793 0.0916337
    length 17.4976
    axis -3.48766 0.00143442 -0.000524262 xyz
    dof rx ry rz
  end
  begin
    id 23
    name LeftLeg
    direction -0.00601358 -0.995091 -0.0987824
    length 16.5821
    axis 3.68178 -0.00654042 -0.000285133 xyz
    dof rx ry rz
  end
  begin
    id 24
    name LeftFoot
    direction -0.00417578 -0.460984 0.887399
    length 3.77069
    axis 1.87233e-006 4.66016e-005 -8.6538e-006 xyz
    dof rx ry rz
  end
  begin
    id 25
    name LeftToes
    direction 0 0 0
    length 0
    axis 0 0 0 xyz
    dof rx ry rz
  end
:hierarchy
  begin
    root RightUpLegDummy SpineDummy LeftUpLegDummy
    RightUpLegDummy RightUpLeg
    RightUpLeg RightLeg
    RightLeg RightFoot
    RightFoot RightToes
    SpineDummy Spine
    Spine Spine1
    Spine1 HEadDummy LeftShoulder1Dummy RightShoulderDummy
    HEadDummy HEad
    LeftShoulder1Dummy LeftShoulder1
    LeftShoulder1 LeftArm
    LeftArm LeftForeArm
    LeftForeArm LeftHand
    RightShoulderDummy RightShoulder
    RightShoulder RightArm
    RightArm RightForeArm
    RightForeArm RightHand
    LeftUpLegDummy LeftUpLeg
    LeftUpLeg LeftLeg
    LeftLeg LeftFoot
    LeftFoot LeftToes
  end

:SAMPLES-PER-SECOND 30
:FULLY-SPECIFIED
:DEGREES
56
root  12.9722 40.5398 9.88916 149.5 86.0269 152.734
RightUpLeg  -0.333639 -13.4084 -12.9627
RightLeg  8.73337 -10.0601 2.09565
RightFoot  -0.296917 -0.359776 3.75228
RightToes  0.000481921 0.542163 -0.142578
Spine  0.870034 0.892589 2.51828
Spine1  13.9864 1.3705 -1.1839
HEad  9.7234 -3.50042 -0.281715
LeftShoulder1  9.38965 -14.165 -46.358
LeftArm  -10.6244 3.97765 -30.4437
LeftForeArm  175.899 -53.5608 -166.853
LeftHand  -0.25398 0.0180481 5.50724
RightShoulder  5.3924 9.75788 34.7045
RightArm  -7.82061 18.1031 34.0325
RightForeArm  106.702 77.9684 118.249
RightHand  -1.67506 3.83256 -21.1866
LeftUpLeg  0.209699 7.65223 7.92922
LeftLeg  1.80864 11.3396 -3.79986
LeftFoot  4.25675 0.629427 -4.78356
LeftToes  1.06245e-005 4.65869e-005 -8.65517e-006
57
root  12.9497 40.5405 9.90727 150.767 85.9357 154.069
RightUpLeg  -0.23898 -13.3844 -12.9227
RightLeg  8.68896 -10.2005 2.11602
RightFoot  -0.282183 -0.35983 3.75964
RightToes  0.000481921 0.542163 -0.142578
Spine  0.756564 1.08318 2.81976
Spine1  14.2453 1.65418 -1.43822
HEad  9.71734 -3.88377 -0.232049
LeftShoulder1  9.42417 -14.211 -46.4092
LeftArm  -10.5547 3.93454 -30.4074
LeftForeArm  175.692 -53.6553 -166.793
LeftHand  -0.25398 0.0180481 5.50724
RightShoulder  5.21699 9.68886 33.5991
RightArm  -7.35816 22.7385 34.0651
RightForeArm  70.299 79.1872 84.6801
RightHand  -1.93091 4.80774 -22.0824
LeftUpLeg  0.218433 7.65623 7.98081
LeftLeg  1.79573 11.208 -3.77346
LeftFoot  4.33162 0.632293 -4.78355
LeftToes  1.06245e-005 4.65869e-005 -8.65517e-006
58
root  12.923 40.5386 9.92117 151.832 85.8329 155.21
RightUpLeg  -0.167824 -13.4324 -12.9201
RightLeg  8.70717 -10.2638 2.14791
RightFoot  -0.283823 -0.358474 3.74276
RightToes  0.000481921 0.542163 -0.142578
Spine  0.707668 1.29564 3.06133
Spine1  14.4107 1.94541 -1.63241
HEad  9.75923 -4.33471 -0.242137
LeftShoulder1  9.49186 -14.2904 -46.5375
LeftArm  -10.4672 3.86182 -30.343
LeftForeArm  175.461 -53.7238 -166.744
LeftHand  -0.25398 0.0180481 5.50724
RightShoulder  5.03333 9.62519 32.3962
RightArm  -7.07494 27.277 34.3001
RightForeArm  36.1665 76.3614 52.244
RightHand  -2.24681 6.0784 -22.8429
LeftUpLeg  0.189453 7.63289 7.99566
LeftLeg  1.85417 11.0989 -3.71157
LeftFoot  4.38455 0.631674 -4.76454
LeftToes  1.06245e-005 4.65869e-005 -8.65517e-006
59
root  12.892 40.5355 9.9372 153.196 85.6583 156.63
RightUpLeg  -0.127741 -13.5013 -12.9205
RightLeg  8.77122 -10.3873 2.16592
RightFoot  -0.296557 -0.355228 3.69433
RightToes  0.000481921 0.542163 -0.142578
Spine  0.850078 1.47374 3.4791
Spine1  14.2443 2.29936 -2.14789
HEad  9.9871 -4.93539 0.0194096
LeftShoulder1  9.55881 -14.415 -46.5399
LeftArm  -10.2325 3.79677 -30.2959
LeftForeArm  175.436 -53.7627 -166.724
LeftHand  -0.25398 0.0180481 5.50724
RightShoulder  4.91921 9.62527 31.5231
RightArm  -7.02997 31.4666 34.3056
RightForeArm  16.4028 70.642 33.3133
RightHand  -2.64181 7.57753 -23.7385
LeftUpLeg  0.110088 7.58176 7.98666
LeftLeg  1.9184 10.952 -3.6329
LeftFoot  4.44623 0.633645 -4.76432
LeftToes  1.06245e-005 4.65869e-005 -8.65517e-006
60
root  12.8629 40.5332 9.95478 154.594 85.4397 158.073
RightUpLeg  -0.0824525 -13.5429 -12.9133
RightLeg  8.82397 -10.5917 2.15773
RightFoot  -0.310554 -0.353459 3.66676
RightToes  0.000481921 0.542163 -0.142578
Spine  1.12652 1.6302 4.0793
Spine1  13.9089 2.70918 -2.92793
HEad  10.2707 -5.67814 0.51367
LeftShoulder1  9.58499 -14.5242 -46.3803
LeftArm  -9.84829 3.68498 -30.3353
LeftForeArm  175.5 -53.8033 -166.71
LeftHand  -0.25398 0.0180481 5.50724
RightShoulder  4.84639 9.6753 30.8213
RightArm  -7.12039 35.2581 34.0914
RightForeArm  4.87958 63.794 23.3623
RightHand  -3.02774 8.90673 -24.6561
LeftUpLeg  0.0385049 7.52165 7.97121
LeftLeg  1.93302 10.7772 -3.56629
LeftFoot  4.52534 0.640928 -4.7957
LeftToes  1.06245e-005 4.65869e-005 -8.65517e-006
61
root  12.8387 40.5321 9.96877 155.745 85.2164 159.274
RightUpLeg  -0.000675061 -13.5837 -12.9262
RightLeg  8.82858 -10.789 2.15711
RightFoot  -0.313644 -0.354365 3.67872
RightToes  0.000481921 0.542163 -0.142578
Spine  1.35755 1.82277 4.67673
Spine1  13.7503 3.14123 -3.65203
HEad  10.373 -6.60712 0.987394
LeftShoulder1  9.56584 -14.5833 -46.1291
LeftArm  -9.44121 3.46074 -30.5401
LeftForeArm  175.495 -53.91 -166.659
LeftHand  -0.25398 0.0180481 5.50724
RightShoulder  4.74281 9.69997 29.9553
RightArm  -7.36263 38.708 33.8704
RightForeArm  -3.09187 56.8335 17.7227
RightHand  -3.28299 9.80267 -25.1433
LeftUpLeg  0.00671662 7.45823 7.94547
LeftLeg  1.89779 10.6109 -3.51274
LeftFoot  4.61563 0.6504 -4.83968
LeftToes  1.06245e-005 4.65869e-005 -8.65517e-006
62
root  12.8175 40.5314 9.97858 156.83 84.9775 160.381
RightUpLeg  0.0799777 -13.6518 -12.963
RightLeg  8.80117 -10.9624 2.19023
RightFoot  -0.303113 -0.354934 3.68365
RightToes  0.000481921 0.542163 -0.142578
Spine  1.41049 2.0689 5.20693
Spine1  13.8927 3.59183 -4.23287
HEad  10.2543 -7.72124 1.35636
LeftShoulder1  9.54703 -14.6453 -45.8732
LeftArm  -9.11131 3.13243 -30.8409
LeftForeArm  175.492 -54.1108 -166.564
LeftHand  -0.25398 0.0180481 5.50724
RightShoulder  4.6082 9.67332 28.9876
RightArm  -7.86788 41.8794 33.5825
RightForeArm  -8.68085 50.1254 14.092
RightHand  -3.41712 10.4353 -25.1289
LeftUpLeg  -0.0390275 7.38127 7.89895
LeftLeg  1.83461 10.4547 -3.45678
LeftFoot  4.71745 0.659363 -4.87648
LeftToes  1.06245e-005 4.65869e-005 -8.65517e-006
63
root  12.8008 40.531 9.98925 158.048 84.7008 161.556
RightUpLeg  0.101653 -13.7019 -12.9829
RightLeg  8.78085 -11.2029 2.22401
RightFoot  -0.295449 -0.354009 3.66371
RightToes  0.000481921 0.542163 -0.142578
Spine  1.31781 2.32185 5.75537
Spine1  14.1536 4.05433 -4.82125
HEad  10.0716 -8.81464 1.70422
LeftShoulder1  9.56524 -14.7531 -45.6827
LeftArm  -8.84654 2.82563 -31.0338
LeftForeArm  175.595 -54.333 -166.466
LeftHand  -0.25398 0.0180481 5.50724
RightShoulder  4.49888 9.64449 28.214
RightArm  -8.51034 44.8287 33.0354
RightForeArm  -13.0485 43.6757 11.5007
RightHand  -3.54054 11.0731 -25.0362
LeftUpLeg  -0.14486 7.30237 7.84688
LeftLeg  1.74251 10.2711 -3.41417
LeftFoot  4.83202 0.667155 -4.90121
LeftToes  1.06245e-005 4.65869e-005 -8.65517e-006
64
root  12.7932 40.5308 10.003 159.308 84.3909 162.727
RightUpLeg  0.0810379 -13.6915 -12.969
RightLeg  8.78286 -11.5516 2.21916
RightFoot  -0.308399 -0.354578 3.66542
RightToes  0.000481921 0.542163 -0.142578
Spine  1.24019 2.53357 6.31796
Spine1  14.2788 4.47962 -5.44272
HEad  9.95356 -9.68273 2.05477
LeftShoulder1  9.60122 -14.8617 -45.5795
LeftArm  -8.59775 2.70847 -31.0339
LeftForeArm  175.734 -54.4711 -166.41
LeftHand  -0.25398 0.0180481 5.50724
RightShoulder  4.4301 9.64576 27.6719
RightArm  -8.90407 47.5593 32.2851
RightForeArm  -17.7543 37.5379 9.59313
RightHand  -3.69695 11.733 -25.134
LeftUpLeg  -0.280405 7.24953 7.81451
LeftLeg  1.63138 10.0291 -3.41244
LeftFoot  4.93956 0.672966 -4.91365
LeftToes  1.06245e-005 4.65869e-005 -8.65517e-006
65
root  12.7931 40.5308 10.0154 160.461 84.0565 163.798
RightUpLeg  0.0816554 -13.6638 -12.9594
RightLeg  8.79458 -11.9338 2.19473
RightFoot  -0.334867 -0.357926 3.70883
RightToes  0.000481921 0.542163 -0.142578
Spine  1.28874 2.70859 6.75835
Spine1  14.1897 4.81862 -5.92768
HEad  9.9054 -10.4003 2.34242
LeftShoulder1  9.62591 -14.9242 -45.5401
LeftArm  -8.36534 2.8011 -30.9641
LeftForeArm  175.79 -54.5161 -166.393
LeftHand  -0.25398 0.0180481 5.50724
RightShoulder  4.35611 9.63831 27.1099
RightArm  -8.87322 49.9877 31.5848
RightForeArm  -22.6637 31.9014 8.15941
RightHand  -3.8272 12.2882 -25.2026
LeftUpLeg  -0.413662 7.2144 7.79133
LeftLeg  1.55522 9.74653 -3.42827
LeftFoot  5.01312 0.676071 -4.91534
LeftToes  1.06245e-005 4.65869e-005 -8.65517e-006
